{"title":"drive carefully.m4v","uid":10097334,"size":30238590,"categoryP":"video","categoryS":"other","magnet":"?xt=urn:btih:947cd26b501509d9d0261a36d3694f512c354783&amp;dn=drive+carefully.m4v&amp;tr=udp%3A%2F%2Ftracker.openbittorrent.com%3A80&amp;tr=udp%3A%2F%2Fopen.demonii.com%3A1337&amp;tr=udp%3A%2F%2Ftracker.coppersurfer.tk%3A6969&amp;tr=udp%3A%2F%2Fexodus.desync.com%3A6969","seeders":0,"leechers":1,"uploader":"steelballz","files":1,"time":1399323770,"description":"This is a 7min video short regarding something that is very dear to my heart.\nPlease watch this video and heed its warning. I don't want to see anymore people hurt, maimed, or killed as a result of inexcusable stupidity. I don't care if this video is re-tagged, up'd to youtube (it already is- as long as it is talked about.)\nTake care and God Bless\n\n\nGeneral\nFormat : MPEG-4\nCodec ID : M4V\nFile size : 28.8 MiB\nDuration : 7mn 41s\nOverall bit rate : 524 Kbps\nWriting application : Helix Producer SDK 11.1 for Windows, Build 11.1.0.2848\nwidt : (Binary)\nheig : (Binary)\ncmpt : ipod\n\nVideo\nID : 1\nFormat : AVC\nFormat/Info : Advanced Video Codec\nFormat profile : &lt;a class=&quot;__cf_email__&quot; href=&quot;/cdn-cgi/l/email-protection&quot; data-cfemail=&quot;92d0f3e1f7fefbfcf7d2dea3bca1&quot;&gt;[email&amp;#160;protected]&lt;/a&gt;&lt;script cf-hash='f9e31' type=&quot;text/javascript&quot;&gt;\n/* &lt;![CDATA[ */!function(){try{var t=&quot;currentScript&quot;in document?document.currentScript:function(){for(var t=document.getElementsByTagName(&quot;script&quot;),e=t.length;e--;)if(t[e].getAttribute(&quot;cf-hash&quot;))return t[e]}();if(t&amp;&amp;t.previousSibling){var e,r,n,i,c=t.previousSibling,a=c.getAttribute(&quot;data-cfemail&quot;);if(a){for(e=&quot;&quot;,r=parseInt(a.substr(0,2),16),n=2;a.length-n;n+=2)i=parseInt(a.substr(n,2),16)^r,e+=String.fromCharCode(i);e=document.createTextNode(e),c.parentNode.replaceChild(e,c)}}}catch(u){}}();/* ]]&gt; */&lt;/script&gt;\nFormat settings, CABAC : No\nFormat settings, ReFrames : 2 frames\nFormat settings, GOP : M=1, N=24\nCodec ID : avc1\nCodec ID/Info : Advanced Video Coding\nDuration : 7mn 40s\nSource duration : 7mn 41s\nBit rate : 384 Kbps\nWidth : 320 pixels\nHeight : 240 pixels\nDisplay aspect ratio : 4:3\nFrame rate mode : Variable\nFrame rate : 30.000 fps\nMinimum frame rate : 29.412 fps\nMaximum frame rate : 30.303 fps\nColor space : YUV\nChroma subsampling : 4:2:0\nBit depth : 8 bits\nScan type : Progressive\nBits/(Pixel*Frame) : 0.167\nStream size : 21.1 MiB (73%)\nSource stream size : 21.1 MiB (73%)\nColor primaries : BT.601 NTSC\nTransfer characteristics : BT.709\nMatrix coefficients : BT.601\nmdhd_Duration : 460900\n\nAudio\nID : 2\nFormat : AAC\nFormat/Info : Advanced Audio Codec\nFormat profile : LC\nCodec ID : 40\nDuration : 7mn 41s\nBit rate mode : Constant\nBit rate : 128 Kbps\nChannel(s) : 2 channels\nChannel positions : Front: L R\nSampling rate : 44.1 KHz\nCompression mode : Lossy\nStream size : 7.00 MiB (24%)\nmdhd_Duration : 461264\n","torrent":{"xt":"urn:btih:947cd26b501509d9d0261a36d3694f512c354783","amp;dn":"drive+carefully.m4v","amp;tr":["udp%3A%2F%2Ftracker.openbittorrent.com%3A80","udp%3A%2F%2Fopen.demonii.com%3A1337","udp%3A%2F%2Ftracker.coppersurfer.tk%3A6969","udp%3A%2F%2Fexodus.desync.com%3A6969"],"infoHash":"947cd26b501509d9d0261a36d3694f512c354783","infoHashBuffer":{"type":"Buffer","data":[148,124,210,107,80,21,9,217,208,38,26,54,211,105,79,81,44,53,71,131]},"announce":[],"urlList":[]}}